<?xml version="1.0" encoding="utf-8"?>
<!-- Generator: Adobe Illustrator 17.0.0, SVG Export Plug-In . SVG Version: 6.00 Build 0)  -->
<!DOCTYPE svg PUBLIC "-//W3C//DTD SVG 1.1//EN" "http://www.w3.org/Graphics/SVG/1.1/DTD/svg11.dtd">
<svg version="1.1" id="Layer_1" xmlns="http://www.w3.org/2000/svg" xmlns:xlink="http://www.w3.org/1999/xlink" x="0px" y="0px"
	 width="178.276px" height="24.671px" viewBox="0 0 178.276 24.671" enable-background="new 0 0 178.276 24.671"
	 xml:space="preserve">
<g>
	<g>
		<path fill="#FFFFFF" d="M112.579,13.774h1.534v10.713h-1.534v-4.662h-6.02v4.662h-1.534V13.774h1.534v4.631h6.02V13.774z"/>
		<path fill="#FFFFFF" d="M127.07,13.774h1.541v6.08c0,0.824-0.06,1.444-0.18,1.865c-0.12,0.417-0.269,0.768-0.445,1.046
			c-0.176,0.279-0.392,0.528-0.649,0.748c-0.849,0.73-1.957,1.097-3.328,1.097c-1.395,0-2.515-0.363-3.359-1.09
			c-0.256-0.224-0.471-0.476-0.647-0.755c-0.176-0.279-0.324-0.619-0.438-1.024c-0.115-0.403-0.173-1.038-0.173-1.901v-6.066h1.541
			v6.08c0,1.009,0.116,1.709,0.345,2.103c0.231,0.392,0.58,0.709,1.051,0.947c0.471,0.237,1.025,0.356,1.665,0.356
			c0.908,0,1.65-0.238,2.222-0.714c0.302-0.254,0.52-0.556,0.652-0.902c0.133-0.349,0.2-0.944,0.2-1.789V13.774z"/>
		<path fill="#FFFFFF" d="M141.631,13.774h1.854l-4.285,5.168l4.583,5.545h-1.852l-3.647-4.439l-3.684,4.439h-1.874l4.611-5.548
			l-4.28-5.165h1.87l3.362,4.092L141.631,13.774z"/>
		<path fill="#FFFFFF" d="M148.137,13.774h1.532v9.317h4.824v1.395h-6.356V13.774z"/>
		<path fill="#FFFFFF" d="M158.976,13.774h6.074v1.366h-4.54v3.265h4.386v1.373h-4.386v3.329h4.685v1.365h-6.219V13.774z"/>
		<path fill="#FFFFFF" d="M176.413,13.774h1.863l-3.959,5.046v5.667h-1.572V18.82l-3.957-5.046h1.852l2.866,3.694L176.413,13.774z"
			/>
	</g>
	<g>
		<path fill="#FFFFFF" d="M13.069,0h-1.967l0.001,21.54l-4.275-3.763H6.464L2.239,21.54v-7c0.266,0.076,0.542,0.129,0.832,0.129
			c1.694,0,3.072-1.379,3.072-3.072c0-1.694-1.378-3.071-3.072-3.071C1.378,8.526,0,9.903,0,11.597c0,0.438,0.095,0.855,0.262,1.23
			V24.59h1.839l4.54-4.095l4.566,4.095h1.863L13.069,0z M3.071,10.075c0.84,0,1.523,0.682,1.523,1.521
			c0,0.84-0.683,1.521-1.523,1.521c-0.838,0-1.521-0.681-1.521-1.521C1.55,10.757,2.233,10.075,3.071,10.075z"/>
		<path fill="#FFFFFF" d="M18.644,13.835h1.534v10.713h-1.534V13.835z"/>
		<path fill="#FFFFFF" d="M34.208,13.835h1.455v10.713h-1.317l-7.162-8.251v8.251h-1.444V13.835h1.243l7.225,8.321V13.835z"/>
		<path fill="#FFFFFF" d="M43.751,20.058l-1.165-0.706c-0.732-0.447-1.252-0.887-1.561-1.318c-0.309-0.433-0.463-0.93-0.463-1.492
			c0-0.843,0.292-1.528,0.878-2.055c0.586-0.527,1.345-0.789,2.281-0.789c0.895,0,1.716,0.251,2.461,0.752v1.741
			c-0.771-0.744-1.601-1.114-2.492-1.114c-0.502,0-0.912,0.116-1.234,0.346c-0.321,0.233-0.483,0.53-0.483,0.891
			c0,0.319,0.118,0.622,0.356,0.901c0.236,0.28,0.618,0.574,1.145,0.883l1.17,0.693c1.307,0.78,1.961,1.773,1.961,2.981
			c0,0.857-0.289,1.555-0.863,2.092c-0.576,0.538-1.323,0.807-2.243,0.807c-1.06,0-2.023-0.325-2.891-0.976v-1.947
			c0.829,1.048,1.786,1.573,2.875,1.573c0.482,0,0.882-0.134,1.201-0.402c0.319-0.266,0.478-0.601,0.478-1.004
			C45.162,21.264,44.691,20.644,43.751,20.058z"/>
		<path fill="#FFFFFF" d="M50.52,13.82h8.949v1.365h-3.735v9.364h-1.541v-9.364H50.52V13.82z"/>
		<path fill="#FFFFFF" d="M68.296,13.681c1.656,0,3.034,0.524,4.135,1.572c1.101,1.049,1.65,2.363,1.65,3.942
			c0,1.58-0.555,2.886-1.666,3.922c-1.111,1.035-2.512,1.554-4.202,1.554c-1.616,0-2.961-0.518-4.035-1.554
			c-1.076-1.037-1.614-2.333-1.614-3.892c0-1.601,0.541-2.924,1.624-3.973C65.272,14.205,66.64,13.681,68.296,13.681z
			 M68.357,15.139c-1.226,0-2.234,0.382-3.022,1.15c-0.79,0.766-1.184,1.744-1.184,2.936c0,1.154,0.396,2.115,1.189,2.883
			c0.79,0.766,1.783,1.15,2.971,1.15c1.196,0,2.194-0.391,2.993-1.173c0.798-0.783,1.198-1.757,1.198-2.922
			c0-1.133-0.4-2.09-1.198-2.863C70.504,15.526,69.521,15.139,68.357,15.139z"/>
		<path fill="#FFFFFF" d="M87.62,13.835h1.458v10.713h-1.32l-7.162-8.251v8.251h-1.442V13.835h1.241l7.225,8.321V13.835z"/>
	</g>
</g>
</svg>
